<svg width="16" height="16" viewBox="0 0 16 16" fill="none" xmlns="http://www.w3.org/2000/svg">
<path d="M8.00004 7.01021L7.64648 6.65666L2.49494 1.50511C2.49492 1.50509 2.4949 1.50507 2.49488 1.50506C2.36362 1.37386 2.18563 1.30016 2.00004 1.30016C1.81447 1.30016 1.6365 1.37384 1.50524 1.505C1.50521 1.50504 1.50517 1.50507 1.50514 1.50511M8.00004 7.01021L1.50514 1.50511M8.00004 7.01021L8.35359 6.65666L13.5052 1.50506L13.5052 1.50511L13.5113 1.49886C13.5759 1.432 13.6531 1.37867 13.7385 1.34199C13.8239 1.3053 13.9158 1.28599 14.0087 1.28518C14.1016 1.28438 14.1938 1.30209 14.2798 1.33728C14.3659 1.37248 14.444 1.42446 14.5098 1.49018C14.5755 1.55591 14.6275 1.63406 14.6627 1.72009C14.6979 1.80612 14.7156 1.8983 14.7148 1.99124C14.7139 2.08418 14.6946 2.17604 14.658 2.26144C14.6213 2.34684 14.5679 2.42408 14.5011 2.48866L14.501 2.4886L14.4949 2.49475L9.34328 7.64635L8.98973 7.9999L9.34328 8.35346L14.4914 13.5016C14.6173 13.6333 14.6868 13.809 14.6853 13.9912C14.6837 14.1748 14.6101 14.3503 14.4803 14.4801C14.3505 14.6099 14.1749 14.6835 13.9914 14.6851C13.8091 14.6867 13.6335 14.6171 13.5017 14.4913L8.35359 9.34315L8.00004 8.9896L7.64648 9.34315L2.49836 14.4913C2.36663 14.6171 2.19098 14.6867 2.0087 14.6851C1.82516 14.6835 1.64959 14.6099 1.51981 14.4801C1.39002 14.3503 1.3164 14.1748 1.31481 13.9912C1.31322 13.809 1.38281 13.6333 1.50867 13.5016L6.65679 8.35346L7.01034 7.9999L6.65679 7.64635L1.50524 2.4948M8.00004 7.01021L1.50524 2.4948M1.50514 1.50511C1.37397 1.63637 1.30029 1.81434 1.30029 1.9999C1.30029 2.18549 1.37399 2.36348 1.50519 2.49475M1.50514 1.50511L1.50519 2.49475M1.50519 2.49475C1.50521 2.49477 1.50523 2.49478 1.50524 2.4948M1.50519 2.49475L1.50524 2.4948" fill="#DC2626" stroke="#DC2626"/>
</svg>
